<?xml version="1.0" encoding="UTF-8" standalone="no"?>
<svg
   xmlns:dc="http://purl.org/dc/elements/1.1/"
   xmlns:cc="http://creativecommons.org/ns#"
   xmlns:rdf="http://www.w3.org/1999/02/22-rdf-syntax-ns#"
   xmlns:svg="http://www.w3.org/2000/svg"
   xmlns="http://www.w3.org/2000/svg"
   xmlns:sodipodi="http://sodipodi.sourceforge.net/DTD/sodipodi-0.dtd"
   xmlns:inkscape="http://www.inkscape.org/namespaces/inkscape"
   width="230"
   height="270"
   viewBox="0 0 230 270"
   id="svg2"
   version="1.1"
   inkscape:version="0.48.0 r9654"
   sodipodi:docname="Schaltung m-o Stromzweig-Model.svg">
  <metadata
     id="metadata374">
    <rdf:RDF>
      <cc:Work
         rdf:about="">
        <dc:format>image/svg+xml</dc:format>
        <dc:type
           rdf:resource="http://purl.org/dc/dcmitype/StillImage" />
      </cc:Work>
    </rdf:RDF>
  </metadata>
  <defs
     id="defs372" />
  <sodipodi:namedview
     pagecolor="#ffffff"
     bordercolor="#666666"
     borderopacity="1"
     objecttolerance="10"
     gridtolerance="10"
     guidetolerance="10"
     inkscape:pageopacity="0"
     inkscape:pageshadow="2"
     inkscape:window-width="1024"
     inkscape:window-height="721"
     id="namedview370"
     showgrid="false"
     inkscape:zoom="1.9962963"
     inkscape:cx="115"
     inkscape:cy="135"
     inkscape:window-x="-4"
     inkscape:window-y="-4"
     inkscape:window-maximized="1"
     inkscape:current-layer="svg2" />
  <title
     id="title4">Produce by DWG to SVG Converter MX</title>
  <desc
     id="desc6">Produce by DWG to SVG Converter MX</desc>
  <path
     d="m 88.14,40.48 0.02,-0.28 m 0,0 0.05,-0.28 m 0,0 0.1,-0.28 m 0,0 0.13,-0.25 m 0,0 0.16,-0.24 m 0,0 0.19,-0.21 m 0,0 0.22,-0.19 m 0,0 0.24,-0.15 m 0,0 0.26,-0.12 m 0,0 0.28,-0.09 m 0,0 0.28,-0.04 m 0,0 0.29,-0.01 m 0,0 0.28,0.02 m 0,0 0.28,0.07 m 0,0 0.27,0.1 m 0,0 0.25,0.14 m 0,0 0.23,0.17 m 0,0 0.21,0.2 m 0,0 0.18,0.23 m 0,0 0.14,0.24 m 0,0 0.12,0.27 m 0,0 0.07,0.28 m 0,0 0.04,0.28 m 0,0 0,0.29 m 0,0 -0.04,0.28 m 0,0 -0.07,0.28 m 0,0 -0.12,0.26 m 0,0 -0.14,0.25 m 0,0 -0.18,0.23 m 0,0 -0.21,0.19 m 0,0 -0.23,0.17 m 0,0 -0.25,0.14 m 0,0 -0.27,0.11 m 0,0 -0.28,0.06 m 0,0 -0.28,0.03 m 0,0 -0.29,-0.01 m 0,0 -0.28,-0.05 m 0,0 -0.28,-0.08 m 0,0 -0.26,-0.12 m 0,0 -0.24,-0.16 m 0,0 -0.22,-0.18 m 0,0 -0.19,-0.21 m 0,0 -0.16,-0.24 m 0,0 -0.13,-0.26 m 0,0 -0.1,-0.27 m 0,0 -0.05,-0.28 m 0,0 -0.02,-0.29"
     id="path32"
     inkscape:connector-curvature="0"
     style="fill:none;stroke:#000000;stroke-width:1.3;stroke-miterlimit:4;stroke-dasharray:none" />
  <path
     d="m 47.3,40.48 0,85.97"
     id="path34"
     inkscape:connector-curvature="0"
     style="fill:none;stroke:#000000;stroke-width:1.3;stroke-miterlimit:4;stroke-dasharray:none" />
  <path
     d="m 47.3,40.48 40.84,0"
     id="path36"
     inkscape:connector-curvature="0"
     style="fill:none;stroke:#000000;stroke-width:1.3;stroke-miterlimit:4;stroke-dasharray:none" />
  <path
     d="m 159.06,40.48 34.38,0"
     id="path38"
     inkscape:connector-curvature="0"
     style="fill:none;stroke:#000000;stroke-width:1.3;stroke-miterlimit:4;stroke-dasharray:none" />
  <path
     d="m 124.67,46.93 34.39,0 m 0,0 0,-12.89 m 0,0 -34.39,0 m 0,0 0,12.89"
     id="path40"
     inkscape:connector-curvature="0"
     style="fill:none;stroke:#000000;stroke-width:1.3;stroke-miterlimit:4;stroke-dasharray:none" />
  <path
     d="m 30.11,83.47 0.02,-0.83 m 0,0 0.06,-0.82 m 0,0 0.1,-0.82 m 0,0 0.14,-0.81 m 0,0 0.17,-0.81 m 0,0 0.22,-0.79 m 0,0 0.25,-0.79 m 0,0 0.29,-0.77 m 0,0 0.33,-0.76 m 0,0 0.36,-0.74 m 0,0 0.4,-0.72 m 0,0 0.43,-0.7 m 0,0 0.47,-0.68 m 0,0 0.49,-0.66 m 0,0 0.53,-0.63 m 0,0 0.56,-0.61 m 0,0 0.59,-0.58 m 0,0 0.61,-0.55 m 0,0 0.64,-0.52 m 0,0 0.66,-0.49 m 0,0 0.69,-0.46 m 0,0 0.71,-0.42 m 0,0 0.72,-0.39 m 0,0 0.75,-0.36 m 0,0 0.76,-0.31 m 0,0 0.77,-0.28 m 0,0 0.79,-0.25 m 0,0 0.8,-0.2 m 0,0 0.81,-0.17 m 0,0 0.81,-0.13 m 0,0 0.82,-0.09 m 0,0 0.83,-0.05 m 0,0 0.82,-0.01 m 0,0 0.82,0.03 m 0,0 0.83,0.07 m 0,0 0.81,0.11 m 0,0 0.81,0.15 m 0,0 0.81,0.18 m 0,0 0.79,0.23 m 0,0 0.78,0.26 m 0,0 0.77,0.3 m 0,0 0.75,0.34 m 0,0 0.74,0.37 m 0,0 0.72,0.41 m 0,0 0.69,0.44 m 0,0 0.68,0.47 m 0,0 0.65,0.5 m 0,0 0.63,0.54 m 0,0 0.6,0.57 m 0,0 0.57,0.59 m 0,0 0.54,0.62 m 0,0 0.52,0.64 m 0,0 0.48,0.67 m 0,0 0.45,0.7 m 0,0 0.41,0.71 m 0,0 0.38,0.73 m 0,0 0.35,0.75 m 0,0 0.31,0.76 m 0,0 0.27,0.78 m 0,0 0.23,0.79 m 0,0 0.2,0.8 m 0,0 0.15,0.81 m 0,0 0.12,0.82 m 0,0 0.08,0.82 m 0,0 0.04,0.82 m 0,0 0,0.83 m 0,0 -0.04,0.82 m 0,0 -0.08,0.82 m 0,0 -0.12,0.82 m 0,0 -0.15,0.81 m 0,0 -0.2,0.8 m 0,0 -0.23,0.79 m 0,0 -0.27,0.78 m 0,0 -0.31,0.76 m 0,0 -0.35,0.75 m 0,0 -0.38,0.73 m 0,0 -0.41,0.71 m 0,0 -0.45,0.7 m 0,0 -0.48,0.67 m 0,0 -0.52,0.64 m 0,0 -0.54,0.62 m 0,0 -0.57,0.6 m 0,0 -0.6,0.56 m 0,0 -0.63,0.54 m 0,0 -0.65,0.5 m 0,0 -0.68,0.47 m 0,0 -0.69,0.45 m 0,0 -0.72,0.4 m 0,0 -0.74,0.37 m 0,0 -0.75,0.34 m 0,0 -0.77,0.3 m 0,0 -0.78,0.26 m 0,0 -0.79,0.23 m 0,0 -0.81,0.18 m 0,0 -0.81,0.15 m 0,0 -0.81,0.11 m 0,0 -0.83,0.07 m 0,0 -0.82,0.03 m 0,0 -0.82,-0.01 m 0,0 -0.83,-0.05 m 0,0 -0.82,-0.09 m 0,0 -0.81,-0.13 m 0,0 -0.81,-0.17 m 0,0 -0.8,-0.2 m 0,0 -0.79,-0.25 m 0,0 -0.77,-0.28 m 0,0 -0.76,-0.31 m 0,0 -0.75,-0.36 m 0,0 -0.72,-0.39 m 0,0 L 38.12,98 m 0,0 -0.69,-0.46 m 0,0 -0.66,-0.49 m 0,0 -0.64,-0.52 m 0,0 -0.61,-0.55 m 0,0 -0.59,-0.58 m 0,0 -0.56,-0.61 m 0,0 -0.53,-0.63 m 0,0 -0.49,-0.66 m 0,0 -0.47,-0.68 m 0,0 -0.43,-0.7 m 0,0 -0.4,-0.72 m 0,0 -0.36,-0.74 m 0,0 -0.33,-0.76 m 0,0 -0.29,-0.77 m 0,0 -0.25,-0.78 m 0,0 -0.22,-0.8 m 0,0 -0.17,-0.81 m 0,0 -0.14,-0.81 m 0,0 -0.1,-0.82 m 0,0 -0.06,-0.82 m 0,0 -0.02,-0.82"
     id="path42"
     inkscape:connector-curvature="0"
     style="fill:none;stroke:#000000;stroke-width:1.3;stroke-miterlimit:4;stroke-dasharray:none" />
  <path
     d="m 67.02,57.96 5.32,0 -0.1,0.34 -0.41,0.01 -0.58,0.07 -0.18,0.07 -0.17,0.07 -0.3,0.24 -0.12,0.17 -0.13,0.18 -0.26,0.64 -0.13,0.46 -1.39,4.71 -0.18,0.63 -0.22,0.82 -0.04,0.2 -0.05,0.27 -0.06,0.5 0,0.24 0,0.51 0.43,0.87 0.44,0.35 0.43,0.35 1.16,0.36 0.73,0 0.48,0 0.84,-0.18 0.37,-0.17 0.37,-0.18 0.62,-0.48 0.26,-0.32 0.26,-0.31 0.48,-0.85 0.21,-0.54 0.22,-0.53 0.38,-1.09 0.16,-0.55 1.1,-3.85 0.21,-0.72 0.21,-0.94 0,-0.22 0,-0.16 -0.14,-0.26 -0.15,-0.11 -0.14,-0.11 -0.57,-0.13 -0.44,-0.02 0.11,-0.34 4,0 -0.1,0.34 -0.36,0 -0.51,0.06 -0.15,0.07 -0.16,0.07 -0.27,0.24 -0.12,0.18 -0.11,0.18 -0.26,0.68 -0.15,0.51 -1.41,4.91 -0.35,1.19 -0.61,1.69 -0.27,0.48 -0.27,0.49 -0.83,0.82 -0.56,0.33 -0.56,0.33 -1.39,0.32 -0.83,0 -0.96,0 -1.54,-0.53 -0.58,-0.54 -0.59,-0.54 -0.59,-1.22 0,-0.7 0,-0.27 0.06,-0.59 0.05,-0.31 0.04,-0.2 0.18,-0.71 0.15,-0.5 1.27,-4.29 0.13,-0.47 0.13,-0.68 0,-0.22 0,-0.17 -0.13,-0.27 -0.14,-0.1 -0.13,-0.09 -0.67,-0.13 -0.53,-0.02 0.09,-0.34 z"
     id="path44"
     inkscape:connector-curvature="0"
     style="fill:#000000;fill-rule:evenodd;stroke-width:1.3;stroke-miterlimit:4;stroke-dasharray:none" />
  <path
     d="m 145.45,25.44 -2.01,-6.13 -0.35,0 -0.71,-0.07 -0.37,-0.07 -1.14,4 -0.1,0.34 -0.11,0.58 0,0.23 0,0.18 0.13,0.28 0.14,0.1 0.1,0.08 0.56,0.11 0.46,0.03 -0.09,0.34 -4.83,0 0.1,-0.34 0.35,-0.01 0.46,-0.07 0.12,-0.06 0.2,-0.08 0.27,-0.21 0.09,-0.14 0.15,-0.21 0.31,-0.78 0.17,-0.56 2.19,-7.62 0.11,-0.38 0.11,-0.59 0,-0.21 0,-0.21 -0.17,-0.37 -0.18,-0.15 -0.17,-0.15 -0.5,-0.14 -0.33,0 0.11,-0.33 4.12,0 1.04,0 1.49,0.39 0.45,0.39 0.46,0.39 0.46,1.02 0,0.64 0,0.61 -0.47,1.11 -0.47,0.5 -0.47,0.51 -1.28,0.64 -0.82,0.13 1.21,3.7 0.23,0.68 0.44,0.89 0.23,0.21 0.22,0.2 0.72,0.24 0.5,0.02 -0.1,0.34 -3.03,0 z m -3.27,-6.8 0.29,0.05 0.53,0.04 0.23,0 0.79,0 1.25,-0.45 0.46,-0.44 0.46,-0.45 0.46,-1.11 0,-0.66 0,-0.51 -0.29,-0.8 -0.29,-0.27 -0.29,-0.28 -0.86,-0.27 -0.58,0 -0.15,0 -0.35,0.03 -0.21,0.04 -1.45,5.08 z"
     id="path46"
     inkscape:connector-curvature="0"
     style="fill:#000000;fill-rule:evenodd;stroke-width:1.3;stroke-miterlimit:4;stroke-dasharray:none" />
  <path
     d="m 152.25,20.64 2.46,-1.2 0.24,0 0,8.52 0,0.42 0.04,0.53 0.03,0.1 0.04,0.11 0.14,0.16 0.12,0.05 0.11,0.06 0.45,0.06 0.34,0.01 0,0.28 -3.79,0 0,-0.28 0.36,-0.01 0.46,-0.06 0.1,-0.05 0.11,-0.06 0.14,-0.14 0.04,-0.09 0.04,-0.09 0.04,-0.55 0,-0.45 0,-5.44 0,-0.55 -0.03,-0.71 -0.04,-0.16 -0.03,-0.12 -0.09,-0.18 -0.07,-0.05 -0.07,-0.06 -0.17,-0.05 -0.09,0 -0.14,0 -0.39,0.11 -0.24,0.12 -0.11,-0.23 z"
     id="path48"
     inkscape:connector-curvature="0"
     style="fill:#000000;fill-rule:evenodd;stroke-width:1.3;stroke-miterlimit:4;stroke-dasharray:none" />
  <path
     d="m 77.94,69.88 0,-0.86 0.26,-1.48 0.26,-0.63 0.26,-0.62 0.69,-0.93 0.43,-0.3 0.34,-0.24 0.69,-0.25 0.36,0 0.58,0 1.04,0.6 0.46,0.59 0.58,0.73 0.57,1.98 0,1.26 0,0.87 -0.25,1.5 -0.25,0.61 -0.25,0.61 -0.65,0.89 -0.39,0.28 -0.4,0.28 -0.75,0.27 -0.37,0 -0.72,0 -1.2,-0.85 -0.48,-0.85 -0.41,-0.72 -0.4,-1.72 0,-1.02 0,0 z m 1.45,0.19 0,1.04 0.26,1.7 0.26,0.66 0.21,0.56 0.63,0.55 0.43,0 0.2,0 0.41,-0.18 0.22,-0.18 0.22,-0.18 0.32,-0.61 0.12,-0.42 0.17,-0.64 0.17,-1.8 0,-1.17 0,-0.86 -0.18,-1.44 -0.18,-0.57 -0.13,-0.43 -0.35,-0.61 -0.21,-0.17 -0.16,-0.13 -0.36,-0.12 -0.22,0 -0.25,0 -0.45,0.23 -0.2,0.22 -0.27,0.31 -0.37,0.97 -0.09,0.66 -0.1,0.67 -0.1,1.3 0,0.64 0,0 z"
     id="path50"
     inkscape:connector-curvature="0"
     style="fill:#000000;fill-rule:evenodd;stroke-width:1.3;stroke-miterlimit:4;stroke-dasharray:none" />
  <path
     d="m 47.3,169.43 0,85.96"
     id="path52"
     inkscape:connector-curvature="0"
     style="fill:none;stroke:#000000;stroke-width:1.3;stroke-miterlimit:4;stroke-dasharray:none" />
  <path
     d="m 30.11,212.41 0.02,-0.82 m 0,0 0.06,-0.83 m 0,0 0.1,-0.81 m 0,0 0.14,-0.82 m 0,0 0.17,-0.8 m 0,0 0.22,-0.8 m 0,0 0.25,-0.78 m 0,0 0.29,-0.78 m 0,0 0.33,-0.75 m 0,0 0.36,-0.74 m 0,0 0.4,-0.73 m 0,0 0.43,-0.7 m 0,0 0.47,-0.68 m 0,0 0.49,-0.66 m 0,0 0.53,-0.63 m 0,0 0.56,-0.61 m 0,0 0.59,-0.58 m 0,0 0.61,-0.55 m 0,0 0.64,-0.52 m 0,0 0.66,-0.49 m 0,0 0.69,-0.45 m 0,0 0.71,-0.43 m 0,0 0.72,-0.39 m 0,0 0.75,-0.35 m 0,0 0.76,-0.32 m 0,0 0.77,-0.28 m 0,0 0.79,-0.24 m 0,0 0.8,-0.21 m 0,0 0.81,-0.16 m 0,0 0.81,-0.13 m 0,0 0.82,-0.09 m 0,0 0.83,-0.05 m 0,0 0.82,-0.01 m 0,0 0.82,0.03 m 0,0 0.83,0.07 m 0,0 0.81,0.11 m 0,0 0.81,0.14 m 0,0 0.81,0.19 m 0,0 0.79,0.22 m 0,0 0.78,0.27 m 0,0 0.77,0.3 m 0,0 0.75,0.33 m 0,0 0.74,0.37 m 0,0 0.72,0.41 m 0,0 0.69,0.44 m 0,0 0.68,0.47 m 0,0 0.65,0.51 m 0,0 0.63,0.54 m 0,0 0.6,0.56 m 0,0 0.57,0.59 m 0,0 0.54,0.62 m 0,0 0.52,0.65 m 0,0 0.48,0.67 m 0,0 0.45,0.69 m 0,0 0.41,0.71 m 0,0 0.38,0.74 m 0,0 0.35,0.74 m 0,0 0.31,0.77 m 0,0 0.27,0.78 m 0,0 0.23,0.79 m 0,0 0.2,0.8 m 0,0 0.15,0.81 m 0,0 0.12,0.81 m 0,0 0.08,0.82 m 0,0 0.04,0.83 m 0,0 0,0.82 m 0,0 -0.04,0.83 m 0,0 -0.08,0.82 m 0,0 -0.12,0.81 m 0,0 -0.15,0.81 m 0,0 -0.2,0.8 m 0,0 -0.23,0.79 m 0,0 -0.27,0.78 m 0,0 -0.31,0.77 m 0,0 -0.35,0.75 m 0,0 -0.38,0.73 m 0,0 -0.41,0.71 m 0,0 -0.45,0.69 m 0,0 -0.48,0.67 m 0,0 -0.52,0.65 m 0,0 -0.54,0.62 m 0,0 -0.57,0.59 m 0,0 -0.6,0.57 m 0,0 -0.63,0.53 m 0,0 -0.65,0.51 m 0,0 -0.68,0.47 m 0,0 -0.69,0.44 m 0,0 -0.72,0.41 m 0,0 -0.74,0.37 m 0,0 -0.75,0.33 m 0,0 -0.77,0.3 m 0,0 -0.78,0.27 m 0,0 -0.79,0.22 m 0,0 -0.81,0.19 m 0,0 -0.81,0.15 m 0,0 -0.81,0.1 m 0,0 -0.83,0.07 m 0,0 -0.82,0.03 m 0,0 -0.82,-0.01 m 0,0 -0.83,-0.05 m 0,0 -0.82,-0.09 m 0,0 -0.81,-0.12 m 0,0 -0.81,-0.17 m 0,0 -0.8,-0.21 m 0,0 -0.79,-0.24 m 0,0 -0.77,-0.28 m 0,0 -0.76,-0.32 m 0,0 -0.75,-0.35 m 0,0 -0.72,-0.39 m 0,0 -0.71,-0.43 m 0,0 -0.69,-0.45 m 0,0 -0.66,-0.49 m 0,0 -0.64,-0.52 m 0,0 -0.61,-0.55 m 0,0 -0.59,-0.58 m 0,0 -0.56,-0.61 m 0,0 -0.53,-0.63 m 0,0 -0.49,-0.66 m 0,0 -0.47,-0.68 m 0,0 -0.43,-0.7 m 0,0 -0.4,-0.73 m 0,0 -0.36,-0.74 m 0,0 -0.33,-0.75 m 0,0 -0.29,-0.77 m 0,0 -0.25,-0.79 m 0,0 -0.22,-0.8 m 0,0 -0.17,-0.8 m 0,0 -0.14,-0.81 m 0,0 -0.1,-0.82 m 0,0 -0.06,-0.82 m 0,0 -0.02,-0.83"
     id="path54"
     inkscape:connector-curvature="0"
     style="fill:none;stroke:#000000;stroke-width:1.3;stroke-miterlimit:4;stroke-dasharray:none" />
  <path
     d="m 67.02,186.91 5.32,0 -0.1,0.33 -0.41,0.01 -0.58,0.08 -0.18,0.07 -0.17,0.06 -0.3,0.24 -0.12,0.18 -0.13,0.17 -0.26,0.64 -0.13,0.47 -1.39,4.71 -0.18,0.63 -0.22,0.82 -0.04,0.2 -0.05,0.27 -0.06,0.5 0,0.23 0,0.52 0.43,0.86 0.44,0.35 0.43,0.36 1.16,0.35 0.73,0 0.48,0 0.84,-0.17 0.37,-0.18 0.37,-0.17 0.62,-0.49 0.26,-0.31 0.26,-0.32 0.48,-0.85 0.21,-0.53 0.22,-0.54 0.38,-1.08 0.16,-0.55 1.1,-3.86 0.21,-0.72 0.21,-0.94 0,-0.22 0,-0.15 -0.14,-0.26 -0.15,-0.11 -0.14,-0.11 -0.57,-0.14 -0.44,-0.02 0.11,-0.33 4,0 -0.1,0.33 -0.36,0 -0.51,0.07 -0.15,0.07 -0.16,0.07 -0.27,0.24 -0.12,0.18 -0.11,0.17 -0.26,0.68 -0.15,0.51 -1.41,4.91 -0.35,1.2 -0.61,1.68 -0.27,0.49 -0.27,0.49 -0.83,0.81 -0.56,0.33 -0.56,0.33 -1.39,0.33 -0.83,0 -0.96,0 -1.54,-0.54 -0.58,-0.53 -0.59,-0.54 -0.59,-1.23 0,-0.69 0,-0.28 0.06,-0.58 0.05,-0.31 0.04,-0.21 0.18,-0.7 0.15,-0.51 1.27,-4.29 0.13,-0.46 0.13,-0.69 0,-0.22 0,-0.17 -0.13,-0.27 -0.14,-0.09 -0.13,-0.1 -0.67,-0.12 -0.53,-0.03 0.09,-0.33 z"
     id="path56"
     inkscape:connector-curvature="0"
     style="fill:#000000;fill-rule:evenodd;stroke-width:1.3;stroke-miterlimit:4;stroke-dasharray:none" />
  <path
     d="m 77.94,198.83 0,-0.86 0.26,-1.49 0.26,-0.62 0.26,-0.62 0.69,-0.93 0.43,-0.31 0.34,-0.24 0.69,-0.24 0.36,0 0.58,0 1.04,0.59 0.46,0.59 0.58,0.73 0.57,1.99 0,1.25 0,0.88 -0.25,1.49 -0.25,0.61 -0.25,0.62 -0.65,0.89 -0.39,0.28 -0.4,0.27 -0.75,0.28 -0.37,0 -0.72,0 -1.2,-0.85 -0.48,-0.85 -0.41,-0.72 -0.4,-1.73 0,-1.01 0,0 z m 1.45,0.19 0,1.04 0.26,1.7 0.26,0.66 0.21,0.55 0.63,0.56 0.43,0 0.2,0 0.41,-0.19 0.22,-0.18 0.22,-0.18 0.32,-0.6 0.12,-0.42 0.17,-0.64 0.17,-1.81 0,-1.16 0,-0.86 -0.18,-1.44 -0.18,-0.58 -0.13,-0.43 -0.35,-0.6 -0.21,-0.18 -0.16,-0.12 -0.36,-0.12 -0.22,0 -0.25,0 -0.45,0.22 -0.2,0.23 -0.27,0.31 -0.37,0.97 -0.09,0.66 -0.1,0.66 -0.1,1.31 0,0.64 0,0 z"
     id="path58"
     inkscape:connector-curvature="0"
     style="fill:#000000;fill-rule:evenodd;stroke-width:1.3;stroke-miterlimit:4;stroke-dasharray:none" />
  <path
     d="m 92.43,40.48 32.24,0"
     id="path60"
     inkscape:connector-curvature="0"
     style="fill:none;stroke:#000000;stroke-width:1.3;stroke-miterlimit:4;stroke-dasharray:none" />
  <path
     d="m 88.14,126.45 0.02,-0.29 m 0,0 0.05,-0.28 m 0,0 0.1,-0.27 m 0,0 0.13,-0.26 m 0,0 0.16,-0.23 m 0,0 0.19,-0.22 m 0,0 0.22,-0.18 m 0,0 0.24,-0.16 m 0,0 0.26,-0.12 m 0,0 0.28,-0.08 m 0,0 0.28,-0.05 m 0,0 0.29,-0.01 m 0,0 0.28,0.03 m 0,0 0.28,0.06 m 0,0 0.27,0.11 m 0,0 0.25,0.14 m 0,0 0.23,0.17 m 0,0 0.21,0.2 m 0,0 0.18,0.22 m 0,0 0.14,0.25 m 0,0 0.12,0.26 m 0,0 0.07,0.28 m 0,0 0.04,0.28 m 0,0 0,0.29 m 0,0 -0.04,0.29 m 0,0 -0.07,0.27 m 0,0 -0.12,0.27 m 0,0 -0.14,0.24 m 0,0 -0.18,0.23 m 0,0 -0.21,0.2 m 0,0 -0.23,0.17 m 0,0 -0.25,0.14 m 0,0 -0.27,0.1 m 0,0 -0.28,0.07 m 0,0 -0.28,0.03 m 0,0 -0.29,-0.01 m 0,0 -0.28,-0.05 m 0,0 -0.28,-0.09 m 0,0 -0.26,-0.12 m 0,0 -0.24,-0.15 m 0,0 -0.22,-0.19 m 0,0 -0.19,-0.21 m 0,0 -0.16,-0.24 m 0,0 -0.13,-0.25 m 0,0 -0.1,-0.28 m 0,0 -0.05,-0.28 m 0,0 -0.02,-0.28"
     id="path62"
     inkscape:connector-curvature="0"
     style="fill:none;stroke:#000000;stroke-width:1.3;stroke-miterlimit:4;stroke-dasharray:none" />
  <path
     d="m 47.3,126.45 40.84,0"
     id="path64"
     inkscape:connector-curvature="0"
     style="fill:none;stroke:#000000;stroke-width:1.3;stroke-miterlimit:4;stroke-dasharray:none" />
  <path
     d="m 159.06,126.45 34.38,0"
     id="path66"
     inkscape:connector-curvature="0"
     style="fill:none;stroke:#000000;stroke-width:1.3;stroke-miterlimit:4;stroke-dasharray:none" />
  <path
     d="m 124.67,132.89 34.39,0 m 0,0 0,-12.89 m 0,0 -34.39,0 m 0,0 0,12.89"
     id="path68"
     inkscape:connector-curvature="0"
     style="fill:none;stroke:#000000;stroke-width:1.3;stroke-miterlimit:4;stroke-dasharray:none" />
  <path
     d="m 145.45,111.4 -2.01,-6.13 -0.35,0.01 -0.71,-0.07 -0.37,-0.08 -1.14,4 -0.1,0.34 -0.11,0.58 0,0.23 0,0.18 0.13,0.28 0.14,0.11 0.1,0.07 0.56,0.11 0.46,0.04 -0.09,0.33 -4.83,0 0.1,-0.33 0.35,-0.02 0.46,-0.07 0.12,-0.05 0.2,-0.08 0.27,-0.22 0.09,-0.13 0.15,-0.22 0.31,-0.78 0.17,-0.55 2.19,-7.62 0.11,-0.39 0.11,-0.59 0,-0.21 0,-0.21 -0.17,-0.36 -0.18,-0.15 -0.17,-0.15 -0.5,-0.15 -0.33,0.01 0.11,-0.34 4.12,0 1.04,0 1.49,0.39 0.45,0.39 0.46,0.39 0.46,1.03 0,0.63 0,0.61 -0.47,1.11 -0.47,0.51 -0.47,0.5 -1.28,0.64 -0.82,0.13 1.21,3.7 0.23,0.68 0.44,0.89 0.23,0.21 0.22,0.21 0.72,0.23 0.5,0.03 -0.1,0.33 -3.03,0 z m -3.27,-6.79 0.29,0.04 0.53,0.04 0.23,0 0.79,0 1.25,-0.44 0.46,-0.45 0.46,-0.44 0.46,-1.11 0,-0.66 0,-0.52 -0.29,-0.79 -0.29,-0.28 -0.29,-0.27 -0.86,-0.28 -0.58,0 -0.15,0 -0.35,0.04 -0.21,0.04 -1.45,5.08 z"
     id="path70"
     inkscape:connector-curvature="0"
     style="fill:#000000;fill-rule:evenodd;stroke-width:1.3;stroke-miterlimit:4;stroke-dasharray:none" />
  <path
     d="m 157.45,113.76 -0.71,1.94 -5.95,0 0,-0.27 1.31,-1.2 1.85,-1.96 0.54,-0.76 0.54,-0.76 0.53,-1.39 0,-0.62 0,-0.48 -0.29,-0.79 -0.3,-0.31 -0.29,-0.31 -0.7,-0.31 -0.41,0 -0.38,0 -0.66,0.22 -0.3,0.22 -0.3,0.22 -0.43,0.64 -0.15,0.42 -0.27,0 0.09,-0.69 0.48,-1.06 0.39,-0.37 0.38,-0.36 0.96,-0.37 0.58,0 0.61,0 1.03,0.39 0.41,0.39 0.41,0.4 0.41,0.93 0,0.53 0,0.39 -0.18,0.76 -0.18,0.38 -0.27,0.61 -0.9,1.27 -0.61,0.68 -0.93,1.01 -1.16,1.22 -0.23,0.21 2.64,0 0.4,0 0.56,-0.03 0.16,-0.03 0.17,-0.03 0.29,-0.12 0.13,-0.1 0.13,-0.09 0.23,-0.26 0.09,-0.16 0.28,0 z"
     id="path72"
     inkscape:connector-curvature="0"
     style="fill:#000000;fill-rule:evenodd;stroke-width:1.3;stroke-miterlimit:4;stroke-dasharray:none" />
  <path
     d="m 92.43,126.45 32.24,0"
     id="path74"
     inkscape:connector-curvature="0"
     style="fill:none;stroke:#000000;stroke-width:1.3;stroke-miterlimit:4;stroke-dasharray:none" />
  <path
     d="m 88.14,169.43 0.02,-0.29 m 0,0 0.05,-0.28 m 0,0 0.1,-0.27 m 0,0 0.13,-0.26 m 0,0 0.16,-0.23 m 0,0 0.19,-0.22 m 0,0 0.22,-0.18 m 0,0 0.24,-0.16 m 0,0 0.26,-0.12 m 0,0 0.28,-0.08 m 0,0 0.28,-0.05 m 0,0 0.29,-0.01 m 0,0 0.28,0.03 m 0,0 0.28,0.07 m 0,0 0.27,0.1 m 0,0 0.25,0.14 m 0,0 0.23,0.17 m 0,0 0.21,0.2 m 0,0 0.18,0.22 m 0,0 0.14,0.25 m 0,0 0.12,0.26 m 0,0 0.07,0.28 m 0,0 0.04,0.29 m 0,0 0,0.28 m 0,0 -0.04,0.29 m 0,0 -0.07,0.27 m 0,0 -0.12,0.27 m 0,0 -0.14,0.25 m 0,0 -0.18,0.22 m 0,0 -0.21,0.2 m 0,0 -0.23,0.17 m 0,0 -0.25,0.14 m 0,0 -0.27,0.1 m 0,0 -0.28,0.07 m 0,0 -0.28,0.03 m 0,0 -0.29,-0.01 m 0,0 -0.28,-0.05 m 0,0 -0.28,-0.09 m 0,0 -0.26,-0.12 m 0,0 -0.24,-0.15 m 0,0 -0.22,-0.19 m 0,0 -0.19,-0.21 m 0,0 -0.16,-0.24 m 0,0 -0.13,-0.25 m 0,0 -0.1,-0.27 m 0,0 -0.05,-0.28 m 0,0 -0.02,-0.29"
     id="path76"
     inkscape:connector-curvature="0"
     style="fill:none;stroke:#000000;stroke-width:1.3;stroke-miterlimit:4;stroke-dasharray:none" />
  <path
     d="m 47.3,169.43 40.84,0"
     id="path78"
     inkscape:connector-curvature="0"
     style="fill:none;stroke:#000000;stroke-width:1.3;stroke-miterlimit:4;stroke-dasharray:none" />
  <path
     d="m 88.14,255.39 0.02,-0.28 m 0,0 0.05,-0.29 m 0,0 0.1,-0.27 m 0,0 0.13,-0.25 m 0,0 0.16,-0.24 m 0,0 0.19,-0.21 m 0,0 0.22,-0.19 m 0,0 0.24,-0.15 m 0,0 0.26,-0.12 m 0,0 0.28,-0.09 m 0,0 0.28,-0.05 m 0,0 0.29,-0.01 m 0,0 0.28,0.03 m 0,0 0.28,0.07 m 0,0 0.27,0.1 m 0,0 0.25,0.14 m 0,0 0.23,0.17 m 0,0 0.21,0.2 m 0,0 0.18,0.23 m 0,0 0.14,0.24 m 0,0 0.12,0.27 m 0,0 0.07,0.27 m 0,0 0.04,0.29 m 0,0 0,0.29 m 0,0 -0.04,0.28 m 0,0 -0.07,0.28 m 0,0 -0.12,0.26 m 0,0 -0.14,0.25 m 0,0 -0.18,0.22 m 0,0 -0.21,0.2 m 0,0 -0.23,0.17 m 0,0 -0.25,0.14 m 0,0 -0.27,0.11 m 0,0 -0.28,0.06 m 0,0 -0.28,0.03 m 0,0 -0.29,-0.01 m 0,0 -0.28,-0.05 m 0,0 -0.28,-0.08 m 0,0 -0.26,-0.12 m 0,0 -0.24,-0.16 m 0,0 -0.22,-0.18 m 0,0 -0.19,-0.22 m 0,0 -0.16,-0.23 m 0,0 -0.13,-0.26 m 0,0 -0.1,-0.27 m 0,0 -0.05,-0.28 m 0,0 -0.02,-0.29"
     id="path80"
     inkscape:connector-curvature="0"
     style="fill:none;stroke:#000000;stroke-width:1.3;stroke-miterlimit:4;stroke-dasharray:none" />
  <path
     d="m 47.3,255.39 40.84,0"
     id="path82"
     inkscape:connector-curvature="0"
     style="fill:none;stroke:#000000;stroke-width:1.3;stroke-miterlimit:4;stroke-dasharray:none" />
  <path
     d="m 126.82,195.22 12.89,0 m 0,0 0,34.38 m 0,0 -12.89,0 m 0,0 0,-34.38"
     id="path84"
     inkscape:connector-curvature="0"
     style="fill:none;stroke:#000000;stroke-width:1.3;stroke-miterlimit:4;stroke-dasharray:none" />
  <path
     d="m 186.99,195.22 12.9,0 m 0,0 0,34.38 m 0,0 -12.9,0 m 0,0 0,-34.38"
     id="path86"
     inkscape:connector-curvature="0"
     style="fill:none;stroke:#000000;stroke-width:1.3;stroke-miterlimit:4;stroke-dasharray:none" />
  <path
     d="m 193.44,195.22 0,-25.79"
     id="path88"
     inkscape:connector-curvature="0"
     style="fill:none;stroke:#000000;stroke-width:1.3;stroke-miterlimit:4;stroke-dasharray:none" />
  <path
     d="m 193.44,169.43 -101.01,0"
     id="path90"
     inkscape:connector-curvature="0"
     style="fill:none;stroke:#000000;stroke-width:1.3;stroke-miterlimit:4;stroke-dasharray:none" />
  <path
     d="m 133.27,195.22 0,-25.79"
     id="path92"
     inkscape:connector-curvature="0"
     style="fill:none;stroke:#000000;stroke-width:1.3;stroke-miterlimit:4;stroke-dasharray:none" />
  <path
     d="m 133.27,229.6 0,25.79"
     id="path94"
     inkscape:connector-curvature="0"
     style="fill:none;stroke:#000000;stroke-width:1.3;stroke-miterlimit:4;stroke-dasharray:none" />
  <path
     d="m 193.44,229.6 0,25.79"
     id="path96"
     inkscape:connector-curvature="0"
     style="fill:none;stroke:#000000;stroke-width:1.3;stroke-miterlimit:4;stroke-dasharray:none" />
  <path
     d="m 92.43,255.39 101.01,0"
     id="path98"
     inkscape:connector-curvature="0"
     style="fill:none;stroke:#000000;stroke-width:1.3;stroke-miterlimit:4;stroke-dasharray:none" />
  <path
     d="m 131.12,169.43 0.02,-0.29 m 0,0 0.05,-0.28 m 0,0 0.1,-0.27 m 0,0 0.13,-0.26 m 0,0 0.16,-0.23 m 0,0 0.19,-0.22 m 0,0 0.22,-0.18 m 0,0 0.24,-0.16 m 0,0 0.26,-0.12 m 0,0 0.28,-0.08 m 0,0 0.28,-0.05 m 0,0 0.29,-0.01 m 0,0 0.28,0.03 m 0,0 0.28,0.07 m 0,0 0.27,0.1 m 0,0 0.25,0.14 m 0,0 0.23,0.17 m 0,0 0.21,0.2 m 0,0 0.18,0.22 m 0,0 0.15,0.25 m 0,0 0.11,0.26 m 0,0 0.07,0.28 m 0,0 0.04,0.29 m 0,0 0,0.28 m 0,0 -0.04,0.29 m 0,0 -0.07,0.27 m 0,0 -0.11,0.27 m 0,0 -0.15,0.25 m 0,0 -0.18,0.22 m 0,0 -0.21,0.2 m 0,0 -0.23,0.17 m 0,0 -0.25,0.14 m 0,0 -0.27,0.1 m 0,0 -0.28,0.07 m 0,0 -0.28,0.03 m 0,0 -0.29,-0.01 m 0,0 -0.28,-0.05 m 0,0 -0.28,-0.09 m 0,0 -0.26,-0.12 m 0,0 -0.24,-0.15 m 0,0 -0.22,-0.19 m 0,0 -0.19,-0.21 m 0,0 -0.16,-0.24 m 0,0 -0.13,-0.25 m 0,0 -0.1,-0.27 m 0,0 -0.05,-0.28 m 0,0 -0.02,-0.29"
     id="path100"
     inkscape:connector-curvature="0"
     style="fill:none;stroke:#000000;stroke-width:1.3;stroke-miterlimit:4;stroke-dasharray:none" />
  <path
     d="m 131.14,169.71 0,-0.56 -0.02,0.28 0.02,0.28 z"
     id="path102"
     inkscape:connector-curvature="0"
     style="fill:#000000;fill-rule:evenodd;stroke-width:1.3;stroke-miterlimit:4;stroke-dasharray:none" />
  <path
     d="m 131.14,169.71 0.05,0.28 -0.05,-0.84 0,0.56 z"
     id="path104"
     inkscape:connector-curvature="0"
     style="fill:#000000;fill-rule:evenodd;stroke-width:1.3;stroke-miterlimit:4;stroke-dasharray:none" />
  <path
     d="m 131.19,169.99 0,-1.12 -0.05,0.28 0.05,0.84 z"
     id="path106"
     inkscape:connector-curvature="0"
     style="fill:#000000;fill-rule:evenodd;stroke-width:1.3;stroke-miterlimit:4;stroke-dasharray:none" />
  <path
     d="m 131.19,169.99 0.09,0.26 -0.09,-1.38 0,1.12 z"
     id="path108"
     inkscape:connector-curvature="0"
     style="fill:#000000;fill-rule:evenodd;stroke-width:1.3;stroke-miterlimit:4;stroke-dasharray:none" />
  <path
     d="m 131.28,170.25 0,-1.64 -0.09,0.26 0.09,1.38 z"
     id="path110"
     inkscape:connector-curvature="0"
     style="fill:#000000;fill-rule:evenodd;stroke-width:1.3;stroke-miterlimit:4;stroke-dasharray:none" />
  <path
     d="m 131.28,170.25 0.13,0.25 -0.13,-1.89 0,1.64 z"
     id="path112"
     inkscape:connector-curvature="0"
     style="fill:#000000;fill-rule:evenodd;stroke-width:1.3;stroke-miterlimit:4;stroke-dasharray:none" />
  <path
     d="m 131.41,170.5 0,-2.15 -0.13,0.26 0.13,1.89 z"
     id="path114"
     inkscape:connector-curvature="0"
     style="fill:#000000;fill-rule:evenodd;stroke-width:1.3;stroke-miterlimit:4;stroke-dasharray:none" />
  <path
     d="m 131.41,170.5 0.15,0.24 -0.15,-2.39 0,2.15 z"
     id="path116"
     inkscape:connector-curvature="0"
     style="fill:#000000;fill-rule:evenodd;stroke-width:1.3;stroke-miterlimit:4;stroke-dasharray:none" />
  <path
     d="m 131.56,170.74 0,-2.62 -0.15,0.23 0.15,2.39 z"
     id="path118"
     inkscape:connector-curvature="0"
     style="fill:#000000;fill-rule:evenodd;stroke-width:1.3;stroke-miterlimit:4;stroke-dasharray:none" />
  <path
     d="m 131.56,170.74 0.19,0.21 -0.19,-2.83 0,2.62 z"
     id="path120"
     inkscape:connector-curvature="0"
     style="fill:#000000;fill-rule:evenodd;stroke-width:1.3;stroke-miterlimit:4;stroke-dasharray:none" />
  <path
     d="m 131.75,170.95 0,-3.04 -0.19,0.21 0.19,2.83 z"
     id="path122"
     inkscape:connector-curvature="0"
     style="fill:#000000;fill-rule:evenodd;stroke-width:1.3;stroke-miterlimit:4;stroke-dasharray:none" />
  <path
     d="m 131.75,170.95 0.21,0.18 -0.21,-3.22 0,3.04 z"
     id="path124"
     inkscape:connector-curvature="0"
     style="fill:#000000;fill-rule:evenodd;stroke-width:1.3;stroke-miterlimit:4;stroke-dasharray:none" />
  <path
     d="m 131.96,171.13 0,-3.41 -0.21,0.19 0.21,3.22 z"
     id="path126"
     inkscape:connector-curvature="0"
     style="fill:#000000;fill-rule:evenodd;stroke-width:1.3;stroke-miterlimit:4;stroke-dasharray:none" />
  <path
     d="m 131.96,171.13 0.23,0.16 -0.23,-3.57 0,3.41 z"
     id="path128"
     inkscape:connector-curvature="0"
     style="fill:#000000;fill-rule:evenodd;stroke-width:1.3;stroke-miterlimit:4;stroke-dasharray:none" />
  <path
     d="m 132.19,171.29 0,-3.72 -0.23,0.15 0.23,3.57 z"
     id="path130"
     inkscape:connector-curvature="0"
     style="fill:#000000;fill-rule:evenodd;stroke-width:1.3;stroke-miterlimit:4;stroke-dasharray:none" />
  <path
     d="m 132.19,171.29 0.25,0.12 -0.25,-3.84 0,3.72 z"
     id="path132"
     inkscape:connector-curvature="0"
     style="fill:#000000;fill-rule:evenodd;stroke-width:1.3;stroke-miterlimit:4;stroke-dasharray:none" />
  <path
     d="m 132.44,171.41 0,-3.97 -0.25,0.13 0.25,3.84 z"
     id="path134"
     inkscape:connector-curvature="0"
     style="fill:#000000;fill-rule:evenodd;stroke-width:1.3;stroke-miterlimit:4;stroke-dasharray:none" />
  <path
     d="m 132.44,171.41 0.27,0.09 -0.27,-4.06 0,3.97 z"
     id="path136"
     inkscape:connector-curvature="0"
     style="fill:#000000;fill-rule:evenodd;stroke-width:1.3;stroke-miterlimit:4;stroke-dasharray:none" />
  <path
     d="m 132.71,171.5 0,-4.15 -0.27,0.09 0.27,4.06 z"
     id="path138"
     inkscape:connector-curvature="0"
     style="fill:#000000;fill-rule:evenodd;stroke-width:1.3;stroke-miterlimit:4;stroke-dasharray:none" />
  <path
     d="m 132.71,171.5 0.28,0.06 -0.28,-4.21 0,4.15 z"
     id="path140"
     inkscape:connector-curvature="0"
     style="fill:#000000;fill-rule:evenodd;stroke-width:1.3;stroke-miterlimit:4;stroke-dasharray:none" />
  <path
     d="m 132.99,171.56 0,-4.26 -0.28,0.05 0.28,4.21 z"
     id="path142"
     inkscape:connector-curvature="0"
     style="fill:#000000;fill-rule:evenodd;stroke-width:1.3;stroke-miterlimit:4;stroke-dasharray:none" />
  <path
     d="m 132.99,171.56 0.28,0.02 -0.28,-4.28 0,4.26 z"
     id="path144"
     inkscape:connector-curvature="0"
     style="fill:#000000;fill-rule:evenodd;stroke-width:1.3;stroke-miterlimit:4;stroke-dasharray:none" />
  <path
     d="m 133.27,171.58 0,-4.3 -0.28,0.02 0.28,4.28 z"
     id="path146"
     inkscape:connector-curvature="0"
     style="fill:#000000;fill-rule:evenodd;stroke-width:1.3;stroke-miterlimit:4;stroke-dasharray:none" />
  <path
     d="m 133.27,171.58 0.28,-0.02 -0.28,-4.28 0,4.3 z"
     id="path148"
     inkscape:connector-curvature="0"
     style="fill:#000000;fill-rule:evenodd;stroke-width:1.3;stroke-miterlimit:4;stroke-dasharray:none" />
  <path
     d="m 133.55,171.56 0,-4.26 -0.28,-0.02 0.28,4.28 z"
     id="path150"
     inkscape:connector-curvature="0"
     style="fill:#000000;fill-rule:evenodd;stroke-width:1.3;stroke-miterlimit:4;stroke-dasharray:none" />
  <path
     d="m 133.55,171.56 0.27,-0.06 -0.27,-4.2 0,4.26 z"
     id="path152"
     inkscape:connector-curvature="0"
     style="fill:#000000;fill-rule:evenodd;stroke-width:1.3;stroke-miterlimit:4;stroke-dasharray:none" />
  <path
     d="m 133.82,171.5 0,-4.15 -0.27,-0.05 0.27,4.2 z"
     id="path154"
     inkscape:connector-curvature="0"
     style="fill:#000000;fill-rule:evenodd;stroke-width:1.3;stroke-miterlimit:4;stroke-dasharray:none" />
  <path
     d="m 133.82,171.5 0.27,-0.09 -0.27,-4.06 0,4.15 z"
     id="path156"
     inkscape:connector-curvature="0"
     style="fill:#000000;fill-rule:evenodd;stroke-width:1.3;stroke-miterlimit:4;stroke-dasharray:none" />
  <path
     d="m 134.09,171.41 0,-3.97 -0.27,-0.09 0.27,4.06 z"
     id="path158"
     inkscape:connector-curvature="0"
     style="fill:#000000;fill-rule:evenodd;stroke-width:1.3;stroke-miterlimit:4;stroke-dasharray:none" />
  <path
     d="m 134.09,171.41 0.25,-0.12 -0.25,-3.85 0,3.97 z"
     id="path160"
     inkscape:connector-curvature="0"
     style="fill:#000000;fill-rule:evenodd;stroke-width:1.3;stroke-miterlimit:4;stroke-dasharray:none" />
  <path
     d="m 134.34,171.29 0,-3.72 -0.25,-0.13 0.25,3.85 z"
     id="path162"
     inkscape:connector-curvature="0"
     style="fill:#000000;fill-rule:evenodd;stroke-width:1.3;stroke-miterlimit:4;stroke-dasharray:none" />
  <path
     d="m 134.34,171.29 0.24,-0.16 -0.24,-3.56 0,3.72 z"
     id="path164"
     inkscape:connector-curvature="0"
     style="fill:#000000;fill-rule:evenodd;stroke-width:1.3;stroke-miterlimit:4;stroke-dasharray:none" />
  <path
     d="m 134.58,171.13 0,-3.41 -0.24,-0.15 0.24,3.56 z"
     id="path166"
     inkscape:connector-curvature="0"
     style="fill:#000000;fill-rule:evenodd;stroke-width:1.3;stroke-miterlimit:4;stroke-dasharray:none" />
  <path
     d="m 134.58,171.13 0.21,-0.18 -0.21,-3.23 0,3.41 z"
     id="path168"
     inkscape:connector-curvature="0"
     style="fill:#000000;fill-rule:evenodd;stroke-width:1.3;stroke-miterlimit:4;stroke-dasharray:none" />
  <path
     d="m 134.79,170.95 0,-3.04 -0.21,-0.19 0.21,3.23 z"
     id="path170"
     inkscape:connector-curvature="0"
     style="fill:#000000;fill-rule:evenodd;stroke-width:1.3;stroke-miterlimit:4;stroke-dasharray:none" />
  <path
     d="m 134.79,170.95 0.18,-0.21 -0.18,-2.83 0,3.04 z"
     id="path172"
     inkscape:connector-curvature="0"
     style="fill:#000000;fill-rule:evenodd;stroke-width:1.3;stroke-miterlimit:4;stroke-dasharray:none" />
  <path
     d="m 134.97,170.74 0,-2.62 -0.18,-0.21 0.18,2.83 z"
     id="path174"
     inkscape:connector-curvature="0"
     style="fill:#000000;fill-rule:evenodd;stroke-width:1.3;stroke-miterlimit:4;stroke-dasharray:none" />
  <path
     d="m 134.97,170.74 0.16,-0.24 -0.16,-2.38 0,2.62 z"
     id="path176"
     inkscape:connector-curvature="0"
     style="fill:#000000;fill-rule:evenodd;stroke-width:1.3;stroke-miterlimit:4;stroke-dasharray:none" />
  <path
     d="m 135.13,170.5 0,-2.15 -0.16,-0.23 0.16,2.38 z"
     id="path178"
     inkscape:connector-curvature="0"
     style="fill:#000000;fill-rule:evenodd;stroke-width:1.3;stroke-miterlimit:4;stroke-dasharray:none" />
  <path
     d="m 135.13,170.5 0.12,-0.25 -0.12,-1.9 0,2.15 z"
     id="path180"
     inkscape:connector-curvature="0"
     style="fill:#000000;fill-rule:evenodd;stroke-width:1.3;stroke-miterlimit:4;stroke-dasharray:none" />
  <path
     d="m 135.25,170.25 0,-1.64 -0.12,-0.26 0.12,1.9 z"
     id="path182"
     inkscape:connector-curvature="0"
     style="fill:#000000;fill-rule:evenodd;stroke-width:1.3;stroke-miterlimit:4;stroke-dasharray:none" />
  <path
     d="m 135.25,170.25 0.09,-0.26 -0.09,-1.38 0,1.64 z"
     id="path184"
     inkscape:connector-curvature="0"
     style="fill:#000000;fill-rule:evenodd;stroke-width:1.3;stroke-miterlimit:4;stroke-dasharray:none" />
  <path
     d="m 135.34,169.99 0,-1.12 -0.09,-0.26 0.09,1.38 z"
     id="path186"
     inkscape:connector-curvature="0"
     style="fill:#000000;fill-rule:evenodd;stroke-width:1.3;stroke-miterlimit:4;stroke-dasharray:none" />
  <path
     d="m 135.34,169.99 0.06,-0.28 -0.06,-0.84 0,1.12 z"
     id="path188"
     inkscape:connector-curvature="0"
     style="fill:#000000;fill-rule:evenodd;stroke-width:1.3;stroke-miterlimit:4;stroke-dasharray:none" />
  <path
     d="m 135.4,169.71 0,-0.56 -0.06,-0.28 0.06,0.84 z"
     id="path190"
     inkscape:connector-curvature="0"
     style="fill:#000000;fill-rule:evenodd;stroke-width:1.3;stroke-miterlimit:4;stroke-dasharray:none" />
  <path
     d="m 135.4,169.71 0.02,-0.28 -0.02,-0.28 0,0.56 z"
     id="path192"
     inkscape:connector-curvature="0"
     style="fill:#000000;fill-rule:evenodd;stroke-width:1.3;stroke-miterlimit:4;stroke-dasharray:none" />
  <path
     d="m 131.12,255.39 0.02,-0.28 m 0,0 0.05,-0.29 m 0,0 0.1,-0.27 m 0,0 0.13,-0.25 m 0,0 0.16,-0.24 m 0,0 0.19,-0.21 m 0,0 0.22,-0.19 m 0,0 0.24,-0.15 m 0,0 0.26,-0.12 m 0,0 0.28,-0.09 m 0,0 0.28,-0.05 m 0,0 0.29,-0.01 m 0,0 0.28,0.03 m 0,0 0.28,0.07 m 0,0 0.27,0.1 m 0,0 0.25,0.14 m 0,0 0.23,0.17 m 0,0 0.21,0.2 m 0,0 0.18,0.23 m 0,0 0.15,0.24 m 0,0 0.11,0.27 m 0,0 0.07,0.27 m 0,0 0.04,0.29 m 0,0 0,0.29 m 0,0 -0.04,0.28 m 0,0 -0.07,0.28 m 0,0 -0.11,0.26 m 0,0 -0.15,0.25 m 0,0 -0.18,0.22 m 0,0 -0.21,0.2 m 0,0 -0.23,0.17 m 0,0 -0.25,0.14 m 0,0 -0.27,0.11 m 0,0 -0.28,0.06 m 0,0 -0.28,0.03 m 0,0 -0.29,-0.01 m 0,0 -0.28,-0.05 m 0,0 -0.28,-0.08 m 0,0 -0.26,-0.12 m 0,0 -0.24,-0.16 m 0,0 -0.22,-0.18 m 0,0 -0.19,-0.22 m 0,0 -0.16,-0.23 m 0,0 -0.13,-0.26 m 0,0 -0.1,-0.27 m 0,0 -0.05,-0.28 m 0,0 -0.02,-0.29"
     id="path194"
     inkscape:connector-curvature="0"
     style="fill:none;stroke:#000000;stroke-width:1.3;stroke-miterlimit:4;stroke-dasharray:none" />
  <path
     d="m 131.14,255.67 0,-0.56 -0.02,0.28 0.02,0.28 z"
     id="path196"
     inkscape:connector-curvature="0"
     style="fill:#000000;fill-rule:evenodd;stroke-width:1.3;stroke-miterlimit:4;stroke-dasharray:none" />
  <path
     d="m 131.14,255.67 0.05,0.28 -0.05,-0.84 0,0.56 z"
     id="path198"
     inkscape:connector-curvature="0"
     style="fill:#000000;fill-rule:evenodd;stroke-width:1.3;stroke-miterlimit:4;stroke-dasharray:none" />
  <path
     d="m 131.19,255.95 0,-1.11 -0.05,0.27 0.05,0.84 z"
     id="path200"
     inkscape:connector-curvature="0"
     style="fill:#000000;fill-rule:evenodd;stroke-width:1.3;stroke-miterlimit:4;stroke-dasharray:none" />
  <path
     d="m 131.19,255.95 0.09,0.27 -0.09,-1.38 0,1.11 z"
     id="path202"
     inkscape:connector-curvature="0"
     style="fill:#000000;fill-rule:evenodd;stroke-width:1.3;stroke-miterlimit:4;stroke-dasharray:none" />
  <path
     d="m 131.28,256.22 0,-1.65 -0.09,0.27 0.09,1.38 z"
     id="path204"
     inkscape:connector-curvature="0"
     style="fill:#000000;fill-rule:evenodd;stroke-width:1.3;stroke-miterlimit:4;stroke-dasharray:none" />
  <path
     d="m 131.28,256.22 0.13,0.25 -0.13,-1.9 0,1.65 z"
     id="path206"
     inkscape:connector-curvature="0"
     style="fill:#000000;fill-rule:evenodd;stroke-width:1.3;stroke-miterlimit:4;stroke-dasharray:none" />
  <path
     d="m 131.41,256.47 0,-2.15 -0.13,0.25 0.13,1.9 z"
     id="path208"
     inkscape:connector-curvature="0"
     style="fill:#000000;fill-rule:evenodd;stroke-width:1.3;stroke-miterlimit:4;stroke-dasharray:none" />
  <path
     d="m 131.41,256.47 0.15,0.23 -0.15,-2.38 0,2.15 z"
     id="path210"
     inkscape:connector-curvature="0"
     style="fill:#000000;fill-rule:evenodd;stroke-width:1.3;stroke-miterlimit:4;stroke-dasharray:none" />
  <path
     d="m 131.56,256.7 0,-2.62 -0.15,0.24 0.15,2.38 z"
     id="path212"
     inkscape:connector-curvature="0"
     style="fill:#000000;fill-rule:evenodd;stroke-width:1.3;stroke-miterlimit:4;stroke-dasharray:none" />
  <path
     d="m 131.56,256.7 0.19,0.21 -0.19,-2.83 0,2.62 z"
     id="path214"
     inkscape:connector-curvature="0"
     style="fill:#000000;fill-rule:evenodd;stroke-width:1.3;stroke-miterlimit:4;stroke-dasharray:none" />
  <path
     d="m 131.75,256.91 0,-3.04 -0.19,0.21 0.19,2.83 z"
     id="path216"
     inkscape:connector-curvature="0"
     style="fill:#000000;fill-rule:evenodd;stroke-width:1.3;stroke-miterlimit:4;stroke-dasharray:none" />
  <path
     d="m 131.75,256.91 0.21,0.19 -0.21,-3.23 0,3.04 z"
     id="path218"
     inkscape:connector-curvature="0"
     style="fill:#000000;fill-rule:evenodd;stroke-width:1.3;stroke-miterlimit:4;stroke-dasharray:none" />
  <path
     d="m 131.96,257.1 0,-3.41 -0.21,0.18 0.21,3.23 z"
     id="path220"
     inkscape:connector-curvature="0"
     style="fill:#000000;fill-rule:evenodd;stroke-width:1.3;stroke-miterlimit:4;stroke-dasharray:none" />
  <path
     d="m 131.96,257.1 0.23,0.15 -0.23,-3.56 0,3.41 z"
     id="path222"
     inkscape:connector-curvature="0"
     style="fill:#000000;fill-rule:evenodd;stroke-width:1.3;stroke-miterlimit:4;stroke-dasharray:none" />
  <path
     d="m 132.19,257.25 0,-3.72 -0.23,0.16 0.23,3.56 z"
     id="path224"
     inkscape:connector-curvature="0"
     style="fill:#000000;fill-rule:evenodd;stroke-width:1.3;stroke-miterlimit:4;stroke-dasharray:none" />
  <path
     d="m 132.19,257.25 0.25,0.13 -0.25,-3.85 0,3.72 z"
     id="path226"
     inkscape:connector-curvature="0"
     style="fill:#000000;fill-rule:evenodd;stroke-width:1.3;stroke-miterlimit:4;stroke-dasharray:none" />
  <path
     d="m 132.44,257.38 0,-3.97 -0.25,0.12 0.25,3.85 z"
     id="path228"
     inkscape:connector-curvature="0"
     style="fill:#000000;fill-rule:evenodd;stroke-width:1.3;stroke-miterlimit:4;stroke-dasharray:none" />
  <path
     d="m 132.44,257.38 0.27,0.09 -0.27,-4.06 0,3.97 z"
     id="path230"
     inkscape:connector-curvature="0"
     style="fill:#000000;fill-rule:evenodd;stroke-width:1.3;stroke-miterlimit:4;stroke-dasharray:none" />
  <path
     d="m 132.71,257.47 0,-4.15 -0.27,0.09 0.27,4.06 z"
     id="path232"
     inkscape:connector-curvature="0"
     style="fill:#000000;fill-rule:evenodd;stroke-width:1.3;stroke-miterlimit:4;stroke-dasharray:none" />
  <path
     d="m 132.71,257.47 0.28,0.05 -0.28,-4.2 0,4.15 z"
     id="path234"
     inkscape:connector-curvature="0"
     style="fill:#000000;fill-rule:evenodd;stroke-width:1.3;stroke-miterlimit:4;stroke-dasharray:none" />
  <path
     d="m 132.99,257.52 0,-4.26 -0.28,0.06 0.28,4.2 z"
     id="path236"
     inkscape:connector-curvature="0"
     style="fill:#000000;fill-rule:evenodd;stroke-width:1.3;stroke-miterlimit:4;stroke-dasharray:none" />
  <path
     d="m 132.99,257.52 0.28,0.02 -0.28,-4.28 0,4.26 z"
     id="path238"
     inkscape:connector-curvature="0"
     style="fill:#000000;fill-rule:evenodd;stroke-width:1.3;stroke-miterlimit:4;stroke-dasharray:none" />
  <path
     d="m 133.27,257.54 0,-4.3 -0.28,0.02 0.28,4.28 z"
     id="path240"
     inkscape:connector-curvature="0"
     style="fill:#000000;fill-rule:evenodd;stroke-width:1.3;stroke-miterlimit:4;stroke-dasharray:none" />
  <path
     d="m 133.27,257.54 0.28,-0.02 -0.28,-4.28 0,4.3 z"
     id="path242"
     inkscape:connector-curvature="0"
     style="fill:#000000;fill-rule:evenodd;stroke-width:1.3;stroke-miterlimit:4;stroke-dasharray:none" />
  <path
     d="m 133.55,257.52 0,-4.26 -0.28,-0.02 0.28,4.28 z"
     id="path244"
     inkscape:connector-curvature="0"
     style="fill:#000000;fill-rule:evenodd;stroke-width:1.3;stroke-miterlimit:4;stroke-dasharray:none" />
  <path
     d="m 133.55,257.52 0.27,-0.05 -0.27,-4.21 0,4.26 z"
     id="path246"
     inkscape:connector-curvature="0"
     style="fill:#000000;fill-rule:evenodd;stroke-width:1.3;stroke-miterlimit:4;stroke-dasharray:none" />
  <path
     d="m 133.82,257.47 0,-4.15 -0.27,-0.06 0.27,4.21 z"
     id="path248"
     inkscape:connector-curvature="0"
     style="fill:#000000;fill-rule:evenodd;stroke-width:1.3;stroke-miterlimit:4;stroke-dasharray:none" />
  <path
     d="m 133.82,257.47 0.27,-0.09 -0.27,-4.06 0,4.15 z"
     id="path250"
     inkscape:connector-curvature="0"
     style="fill:#000000;fill-rule:evenodd;stroke-width:1.3;stroke-miterlimit:4;stroke-dasharray:none" />
  <path
     d="m 134.09,257.38 0,-3.97 -0.27,-0.09 0.27,4.06 z"
     id="path252"
     inkscape:connector-curvature="0"
     style="fill:#000000;fill-rule:evenodd;stroke-width:1.3;stroke-miterlimit:4;stroke-dasharray:none" />
  <path
     d="m 134.09,257.38 0.25,-0.13 -0.25,-3.84 0,3.97 z"
     id="path254"
     inkscape:connector-curvature="0"
     style="fill:#000000;fill-rule:evenodd;stroke-width:1.3;stroke-miterlimit:4;stroke-dasharray:none" />
  <path
     d="m 134.34,257.25 0,-3.72 -0.25,-0.12 0.25,3.84 z"
     id="path256"
     inkscape:connector-curvature="0"
     style="fill:#000000;fill-rule:evenodd;stroke-width:1.3;stroke-miterlimit:4;stroke-dasharray:none" />
  <path
     d="m 134.34,257.25 0.24,-0.15 -0.24,-3.57 0,3.72 z"
     id="path258"
     inkscape:connector-curvature="0"
     style="fill:#000000;fill-rule:evenodd;stroke-width:1.3;stroke-miterlimit:4;stroke-dasharray:none" />
  <path
     d="m 134.58,257.1 0,-3.41 -0.24,-0.16 0.24,3.57 z"
     id="path260"
     inkscape:connector-curvature="0"
     style="fill:#000000;fill-rule:evenodd;stroke-width:1.3;stroke-miterlimit:4;stroke-dasharray:none" />
  <path
     d="m 134.58,257.1 0.21,-0.19 -0.21,-3.22 0,3.41 z"
     id="path262"
     inkscape:connector-curvature="0"
     style="fill:#000000;fill-rule:evenodd;stroke-width:1.3;stroke-miterlimit:4;stroke-dasharray:none" />
  <path
     d="m 134.79,256.91 0,-3.04 -0.21,-0.18 0.21,3.22 z"
     id="path264"
     inkscape:connector-curvature="0"
     style="fill:#000000;fill-rule:evenodd;stroke-width:1.3;stroke-miterlimit:4;stroke-dasharray:none" />
  <path
     d="m 134.79,256.91 0.18,-0.21 -0.18,-2.83 0,3.04 z"
     id="path266"
     inkscape:connector-curvature="0"
     style="fill:#000000;fill-rule:evenodd;stroke-width:1.3;stroke-miterlimit:4;stroke-dasharray:none" />
  <path
     d="m 134.97,256.7 0,-2.62 -0.18,-0.21 0.18,2.83 z"
     id="path268"
     inkscape:connector-curvature="0"
     style="fill:#000000;fill-rule:evenodd;stroke-width:1.3;stroke-miterlimit:4;stroke-dasharray:none" />
  <path
     d="m 134.97,256.7 0.16,-0.23 -0.16,-2.39 0,2.62 z"
     id="path270"
     inkscape:connector-curvature="0"
     style="fill:#000000;fill-rule:evenodd;stroke-width:1.3;stroke-miterlimit:4;stroke-dasharray:none" />
  <path
     d="m 135.13,256.47 0,-2.15 -0.16,-0.24 0.16,2.39 z"
     id="path272"
     inkscape:connector-curvature="0"
     style="fill:#000000;fill-rule:evenodd;stroke-width:1.3;stroke-miterlimit:4;stroke-dasharray:none" />
  <path
     d="m 135.13,256.47 0.12,-0.25 -0.12,-1.9 0,2.15 z"
     id="path274"
     inkscape:connector-curvature="0"
     style="fill:#000000;fill-rule:evenodd;stroke-width:1.3;stroke-miterlimit:4;stroke-dasharray:none" />
  <path
     d="m 135.25,256.22 0,-1.65 -0.12,-0.25 0.12,1.9 z"
     id="path276"
     inkscape:connector-curvature="0"
     style="fill:#000000;fill-rule:evenodd;stroke-width:1.3;stroke-miterlimit:4;stroke-dasharray:none" />
  <path
     d="m 135.25,256.22 0.09,-0.27 -0.09,-1.38 0,1.65 z"
     id="path278"
     inkscape:connector-curvature="0"
     style="fill:#000000;fill-rule:evenodd;stroke-width:1.3;stroke-miterlimit:4;stroke-dasharray:none" />
  <path
     d="m 135.34,255.95 0,-1.11 -0.09,-0.27 0.09,1.38 z"
     id="path280"
     inkscape:connector-curvature="0"
     style="fill:#000000;fill-rule:evenodd;stroke-width:1.3;stroke-miterlimit:4;stroke-dasharray:none" />
  <path
     d="m 135.34,255.95 0.06,-0.28 -0.06,-0.83 0,1.11 z"
     id="path282"
     inkscape:connector-curvature="0"
     style="fill:#000000;fill-rule:evenodd;stroke-width:1.3;stroke-miterlimit:4;stroke-dasharray:none" />
  <path
     d="m 135.4,255.67 0,-0.56 -0.06,-0.27 0.06,0.83 z"
     id="path284"
     inkscape:connector-curvature="0"
     style="fill:#000000;fill-rule:evenodd;stroke-width:1.3;stroke-miterlimit:4;stroke-dasharray:none" />
  <path
     d="m 135.4,255.67 0.02,-0.28 -0.02,-0.28 0,0.56 z"
     id="path286"
     inkscape:connector-curvature="0"
     style="fill:#000000;fill-rule:evenodd;stroke-width:1.3;stroke-miterlimit:4;stroke-dasharray:none" />
  <path
     d="m 193.44,40.48 0,85.97"
     id="path288"
     inkscape:connector-curvature="0"
     style="fill:none;stroke:#000000;stroke-width:1.3;stroke-miterlimit:4;stroke-dasharray:none" />
  <path
     d="m 109.8,214.56 -2.01,-6.13 -0.35,0 -0.71,-0.07 -0.37,-0.07 -1.14,4 -0.1,0.34 -0.11,0.58 0,0.23 0,0.18 0.13,0.28 0.14,0.1 0.1,0.08 0.56,0.11 0.46,0.03 -0.09,0.34 -4.83,0 0.1,-0.34 0.35,-0.01 0.46,-0.07 0.12,-0.06 0.2,-0.08 0.27,-0.21 0.09,-0.14 0.15,-0.21 0.31,-0.78 0.17,-0.56 2.19,-7.62 0.11,-0.38 0.11,-0.59 0,-0.21 0,-0.21 -0.17,-0.37 -0.18,-0.15 -0.17,-0.15 -0.5,-0.14 -0.33,0 0.11,-0.33 4.12,0 1.04,0 1.49,0.39 0.45,0.39 0.46,0.39 0.46,1.02 0,0.64 0,0.61 -0.47,1.11 -0.47,0.5 -0.47,0.51 -1.28,0.64 -0.82,0.13 1.21,3.7 0.23,0.68 0.44,0.89 0.23,0.21 0.22,0.2 0.72,0.24 0.5,0.02 -0.1,0.34 -3.03,0 z m -3.27,-6.8 0.29,0.05 0.53,0.04 0.23,0 0.79,0 1.25,-0.45 0.46,-0.44 0.46,-0.45 0.46,-1.11 0,-0.66 0,-0.51 -0.29,-0.8 -0.29,-0.27 -0.29,-0.28 -0.86,-0.27 -0.58,0 -0.15,0 -0.35,0.03 -0.21,0.04 -1.45,5.08 z"
     id="path290"
     inkscape:connector-curvature="0"
     style="fill:#000000;fill-rule:evenodd;stroke-width:1.3;stroke-miterlimit:4;stroke-dasharray:none" />
  <path
     d="m 116.6,209.76 2.46,-1.2 0.24,0 0,8.52 0,0.42 0.04,0.53 0.03,0.1 0.04,0.11 0.14,0.16 0.12,0.05 0.11,0.06 0.45,0.06 0.34,0.01 0,0.28 -3.79,0 0,-0.28 0.36,-0.01 0.46,-0.06 0.1,-0.05 0.11,-0.06 0.14,-0.14 0.04,-0.09 0.04,-0.09 0.04,-0.55 0,-0.45 0,-5.44 0,-0.55 -0.03,-0.71 -0.04,-0.16 -0.03,-0.12 -0.09,-0.18 -0.07,-0.05 -0.07,-0.06 -0.17,-0.05 -0.09,0 -0.14,0 -0.39,0.11 -0.24,0.12 -0.11,-0.23 z"
     id="path292"
     inkscape:connector-curvature="0"
     style="fill:#000000;fill-rule:evenodd;stroke-width:1.3;stroke-miterlimit:4;stroke-dasharray:none" />
  <path
     d="m 169.97,214.56 -2.01,-6.13 -0.35,0 -0.71,-0.07 -0.36,-0.07 -1.14,4 -0.11,0.34 -0.11,0.58 0,0.23 0,0.18 0.14,0.28 0.13,0.1 0.11,0.08 0.55,0.11 0.46,0.03 -0.08,0.34 -4.83,0 0.1,-0.34 0.34,-0.01 0.47,-0.07 0.12,-0.06 0.19,-0.08 0.28,-0.21 0.09,-0.14 0.15,-0.21 0.31,-0.78 0.16,-0.56 2.19,-7.62 0.11,-0.38 0.12,-0.59 0,-0.21 0,-0.21 -0.18,-0.37 -0.17,-0.15 -0.18,-0.15 -0.5,-0.14 -0.32,0 0.11,-0.33 4.12,0 1.03,0 1.49,0.39 0.46,0.39 0.45,0.39 0.46,1.02 0,0.64 0,0.61 -0.47,1.11 -0.47,0.5 -0.46,0.51 -1.29,0.64 -0.81,0.13 1.21,3.7 0.22,0.68 0.45,0.89 0.22,0.21 0.22,0.2 0.73,0.24 0.49,0.02 -0.1,0.34 -3.03,0 z m -3.27,-6.8 0.3,0.05 0.52,0.04 0.23,0 0.79,0 1.26,-0.45 0.46,-0.44 0.46,-0.45 0.46,-1.11 0,-0.66 0,-0.51 -0.29,-0.8 -0.29,-0.27 -0.29,-0.28 -0.87,-0.27 -0.58,0 -0.15,0 -0.35,0.03 -0.2,0.04 -1.46,5.08 z"
     id="path294"
     inkscape:connector-curvature="0"
     style="fill:#000000;fill-rule:evenodd;stroke-width:1.3;stroke-miterlimit:4;stroke-dasharray:none" />
  <path
     d="m 181.98,216.91 -0.71,1.95 -5.96,0 0,-0.28 1.32,-1.2 1.85,-1.95 0.53,-0.76 0.54,-0.76 0.54,-1.39 0,-0.63 0,-0.48 -0.3,-0.79 -0.29,-0.3 -0.3,-0.31 -0.7,-0.31 -0.41,0 -0.37,0 -0.67,0.22 -0.3,0.21 -0.29,0.22 -0.44,0.64 -0.14,0.42 -0.28,0 0.1,-0.69 0.48,-1.05 0.38,-0.37 0.39,-0.37 0.96,-0.37 0.57,0 0.62,0 1.02,0.4 0.41,0.39 0.41,0.39 0.42,0.93 0,0.54 0,0.38 -0.18,0.77 -0.18,0.38 -0.28,0.6 -0.89,1.28 -0.62,0.67 -0.93,1.01 -1.15,1.22 -0.23,0.21 2.63,0 0.4,0 0.57,-0.03 0.16,-0.03 0.16,-0.03 0.29,-0.12 0.13,-0.09 0.13,-0.09 0.23,-0.26 0.1,-0.17 0.28,0 z"
     id="path296"
     inkscape:connector-curvature="0"
     style="fill:#000000;fill-rule:evenodd;stroke-width:1.3;stroke-miterlimit:4;stroke-dasharray:none" />
  <path
     d="m 90.29,49.08 0,68.77"
     id="path298"
     inkscape:connector-curvature="0"
     style="fill:none;stroke:#0000ff;stroke-width:1.3;stroke-miterlimit:4;stroke-dasharray:none" />
  <path
     d="m 90.29,117.85 2.14,-12.89"
     id="path300"
     inkscape:connector-curvature="0"
     style="fill:none;stroke:#0000ff;stroke-width:1.3;stroke-miterlimit:4;stroke-dasharray:none" />
  <path
     d="m 88.14,104.96 2.15,12.89"
     id="path302"
     inkscape:connector-curvature="0"
     style="fill:none;stroke:#0000ff;stroke-width:1.3;stroke-miterlimit:4;stroke-dasharray:none" />
  <path
     d="m 124.67,53.38 34.39,0"
     id="path304"
     inkscape:connector-curvature="0"
     style="fill:none;stroke:#0000ff;stroke-width:1.3;stroke-miterlimit:4;stroke-dasharray:none" />
  <path
     d="m 159.06,53.38 -12.9,-2.15"
     id="path306"
     inkscape:connector-curvature="0"
     style="fill:none;stroke:#0000ff;stroke-width:1.3;stroke-miterlimit:4;stroke-dasharray:none" />
  <path
     d="m 146.16,55.53 12.9,-2.15"
     id="path308"
     inkscape:connector-curvature="0"
     style="fill:none;stroke:#0000ff;stroke-width:1.3;stroke-miterlimit:4;stroke-dasharray:none" />
  <path
     d="m 124.67,139.34 34.39,0"
     id="path310"
     inkscape:connector-curvature="0"
     style="fill:none;stroke:#0000ff;stroke-width:1.3;stroke-miterlimit:4;stroke-dasharray:none" />
  <path
     d="m 124.67,139.34 12.9,-2.15"
     id="path312"
     inkscape:connector-curvature="0"
     style="fill:none;stroke:#0000ff;stroke-width:1.3;stroke-miterlimit:4;stroke-dasharray:none" />
  <path
     d="m 137.57,141.49 -12.9,-2.15"
     id="path314"
     inkscape:connector-curvature="0"
     style="fill:none;stroke:#0000ff;stroke-width:1.3;stroke-miterlimit:4;stroke-dasharray:none" />
  <path
     d="m 132.38,57.96 5.32,0 -0.1,0.34 -0.41,0.01 -0.59,0.07 -0.17,0.07 -0.18,0.07 -0.29,0.24 -0.13,0.17 -0.12,0.18 -0.26,0.64 -0.13,0.46 -1.39,4.71 -0.19,0.63 -0.22,0.82 -0.03,0.2 -0.06,0.27 -0.05,0.5 0,0.24 0,0.51 0.43,0.87 0.43,0.35 0.44,0.35 1.16,0.36 0.73,0 0.48,0 0.84,-0.18 0.37,-0.17 0.36,-0.18 0.63,-0.48 0.26,-0.32 0.26,-0.31 0.48,-0.85 0.21,-0.54 0.22,-0.53 0.37,-1.09 0.16,-0.55 1.11,-3.85 0.21,-0.72 0.2,-0.94 0,-0.22 0,-0.16 -0.14,-0.26 -0.14,-0.11 -0.14,-0.11 -0.58,-0.13 -0.43,-0.02 0.1,-0.34 4.01,0 -0.11,0.34 -0.35,0 -0.51,0.06 -0.15,0.07 -0.16,0.07 -0.27,0.24 -0.12,0.18 -0.12,0.18 -0.26,0.68 -0.14,0.51 -1.42,4.91 -0.34,1.19 -0.61,1.69 -0.27,0.48 -0.27,0.49 -0.83,0.82 -0.56,0.33 -0.56,0.33 -1.39,0.32 -0.83,0 -0.96,0 -1.54,-0.53 -0.59,-0.54 -0.58,-0.54 -0.59,-1.22 0,-0.7 0,-0.27 0.05,-0.59 0.05,-0.31 0.04,-0.2 0.19,-0.71 0.14,-0.5 1.27,-4.29 0.13,-0.47 0.14,-0.68 0,-0.22 0,-0.17 -0.14,-0.27 -0.13,-0.1 -0.13,-0.09 -0.67,-0.13 -0.54,-0.02 0.1,-0.34 z"
     id="path316"
     inkscape:connector-curvature="0"
     style="fill:#000000;fill-rule:evenodd;stroke-width:1.3;stroke-miterlimit:4;stroke-dasharray:none" />
  <path
     d="m 144.53,65.77 2.46,-1.2 0.25,0 0,8.52 0,0.43 0.04,0.52 0.03,0.11 0.04,0.1 0.14,0.16 0.11,0.05 0.12,0.06 0.45,0.06 0.34,0.01 0,0.28 -3.79,0 0,-0.28 0.36,-0.01 0.46,-0.06 0.1,-0.05 0.1,-0.06 0.15,-0.14 0.04,-0.09 0.04,-0.09 0.04,-0.54 0,-0.46 0,-5.44 0,-0.55 -0.04,-0.71 -0.03,-0.16 -0.03,-0.12 -0.09,-0.17 -0.07,-0.06 -0.07,-0.06 -0.17,-0.05 -0.1,0 -0.13,0 -0.39,0.11 -0.24,0.12 -0.12,-0.23 z"
     id="path318"
     inkscape:connector-curvature="0"
     style="fill:#000000;fill-rule:evenodd;stroke-width:1.3;stroke-miterlimit:4;stroke-dasharray:none" />
  <path
     d="m 138.83,143.92 5.32,0 -0.11,0.34 -0.41,0.01 -0.58,0.08 -0.17,0.06 -0.18,0.07 -0.3,0.24 -0.12,0.18 -0.12,0.17 -0.26,0.64 -0.14,0.47 -1.38,4.71 -0.19,0.62 -0.22,0.83 -0.03,0.19 -0.06,0.27 -0.06,0.51 0,0.23 0,0.51 0.44,0.87 0.43,0.35 0.44,0.36 1.16,0.35 0.73,0 0.48,0 0.84,-0.17 0.37,-0.18 0.36,-0.17 0.63,-0.49 0.26,-0.31 0.26,-0.32 0.47,-0.85 0.22,-0.53 0.21,-0.54 0.38,-1.09 0.16,-0.55 1.1,-3.85 0.21,-0.72 0.21,-0.94 0,-0.22 0,-0.15 -0.14,-0.27 -0.14,-0.11 -0.14,-0.1 -0.58,-0.14 -0.43,-0.02 0.1,-0.34 4,0 -0.1,0.34 -0.35,0 -0.51,0.07 -0.16,0.07 -0.15,0.06 -0.28,0.25 -0.11,0.17 -0.12,0.18 -0.26,0.68 -0.14,0.51 -1.42,4.91 -0.34,1.2 -0.61,1.68 -0.27,0.49 -0.27,0.49 -0.83,0.81 -0.56,0.33 -0.56,0.33 -1.39,0.33 -0.83,0 -0.96,0 -1.54,-0.54 -0.59,-0.54 -0.58,-0.53 -0.59,-1.23 0,-0.69 0,-0.28 0.05,-0.58 0.05,-0.31 0.04,-0.21 0.18,-0.71 0.15,-0.5 1.27,-4.29 0.13,-0.47 0.13,-0.68 0,-0.22 0,-0.17 -0.13,-0.27 -0.13,-0.09 -0.14,-0.1 -0.66,-0.12 -0.54,-0.03 0.1,-0.34 z"
     id="path320"
     inkscape:connector-curvature="0"
     style="fill:#000000;fill-rule:evenodd;stroke-width:1.3;stroke-miterlimit:4;stroke-dasharray:none" />
  <path
     d="m 156.19,158.89 -0.71,1.94 -5.95,0 0,-0.27 1.31,-1.2 1.85,-1.96 0.53,-0.76 0.54,-0.76 0.54,-1.38 0,-0.63 0,-0.48 -0.3,-0.79 -0.29,-0.31 -0.3,-0.31 -0.7,-0.31 -0.41,0 -0.37,0 -0.67,0.22 -0.29,0.22 -0.3,0.22 -0.44,0.64 -0.14,0.42 -0.27,0 0.09,-0.69 0.48,-1.06 0.38,-0.37 0.39,-0.36 0.96,-0.37 0.57,0 0.62,0 1.02,0.39 0.41,0.4 0.42,0.39 0.41,0.93 0,0.53 0,0.39 -0.18,0.76 -0.18,0.39 -0.28,0.6 -0.89,1.27 -0.62,0.68 -0.93,1.01 -1.15,1.22 -0.23,0.21 2.63,0 0.4,0 0.57,-0.03 0.16,-0.03 0.16,-0.03 0.29,-0.12 0.13,-0.09 0.13,-0.1 0.23,-0.25 0.1,-0.17 0.28,0 z"
     id="path322"
     inkscape:connector-curvature="0"
     style="fill:#000000;fill-rule:evenodd;stroke-width:1.3;stroke-miterlimit:4;stroke-dasharray:none" />
  <path
     d="m 55.9,233.9 0,17.19"
     id="path324"
     inkscape:connector-curvature="0"
     style="fill:none;stroke:#ff0000;stroke-width:1.3;stroke-miterlimit:4;stroke-dasharray:none" />
  <path
     d="m 55.9,233.9 -2.15,6.45"
     id="path326"
     inkscape:connector-curvature="0"
     style="fill:none;stroke:#ff0000;stroke-width:1.3;stroke-miterlimit:4;stroke-dasharray:none" />
  <path
     d="m 55.9,233.9 2.15,6.45"
     id="path328"
     inkscape:connector-curvature="0"
     style="fill:none;stroke:#ff0000;stroke-width:1.3;stroke-miterlimit:4;stroke-dasharray:none" />
  <path
     d="m 124.67,233.9 0,17.19"
     id="path330"
     inkscape:connector-curvature="0"
     style="fill:none;stroke:#ff0000;stroke-width:1.3;stroke-miterlimit:4;stroke-dasharray:none" />
  <path
     d="m 124.67,251.09 2.15,-6.44"
     id="path332"
     inkscape:connector-curvature="0"
     style="fill:none;stroke:#ff0000;stroke-width:1.3;stroke-miterlimit:4;stroke-dasharray:none" />
  <path
     d="m 122.52,244.65 2.15,6.44"
     id="path334"
     inkscape:connector-curvature="0"
     style="fill:none;stroke:#ff0000;stroke-width:1.3;stroke-miterlimit:4;stroke-dasharray:none" />
  <path
     d="m 65.71,246.46 -0.1,0.34 -5.13,0 0.13,-0.34 0.39,-0.01 0.52,-0.06 0.13,-0.06 0.2,-0.08 0.3,-0.22 0.1,-0.14 0.15,-0.22 0.32,-0.78 0.16,-0.57 2.19,-7.61 0.14,-0.48 0.14,-0.71 0,-0.24 0,-0.13 -0.06,-0.2 -0.06,-0.08 -0.06,-0.09 -0.19,-0.13 -0.12,-0.04 -0.12,-0.04 -0.48,-0.05 -0.36,0 0.11,-0.33 4.82,0 -0.1,0.33 -0.3,0 -0.44,0.07 -0.15,0.07 -0.21,0.1 -0.32,0.29 -0.11,0.19 -0.1,0.19 -0.29,0.83 -0.17,0.64 -2.19,7.61 -0.15,0.48 -0.14,0.61 0,0.14 0,0.1 0.05,0.18 0.06,0.08 0.06,0.07 0.19,0.12 0.12,0.04 0.13,0.04 0.53,0.07 0.41,0.02 0,0 z"
     id="path336"
     inkscape:connector-curvature="0"
     style="fill:#000000;fill-rule:evenodd;stroke-width:1.3;stroke-miterlimit:4;stroke-dasharray:none" />
  <path
     d="m 68.08,246.11 0,-0.86 0.26,-1.49 0.26,-0.62 0.26,-0.62 0.69,-0.93 0.43,-0.31 0.34,-0.24 0.69,-0.24 0.36,0 0.58,0 1.04,0.59 0.46,0.59 0.58,0.73 0.57,1.99 0,1.25 0,0.88 -0.25,1.49 -0.25,0.61 -0.26,0.62 -0.64,0.89 -0.39,0.28 -0.4,0.27 -0.75,0.28 -0.37,0 -0.72,0 -1.2,-0.85 -0.48,-0.85 -0.41,-0.72 -0.4,-1.73 0,-1.01 0,0 z m 1.45,0.19 0,1.04 0.26,1.7 0.26,0.66 0.21,0.55 0.63,0.56 0.42,0 0.21,0 0.41,-0.19 0.22,-0.18 0.21,-0.18 0.33,-0.6 0.11,-0.42 0.18,-0.64 0.17,-1.81 0,-1.16 0,-0.86 -0.18,-1.44 -0.18,-0.58 -0.13,-0.43 -0.35,-0.6 -0.21,-0.18 -0.16,-0.12 -0.37,-0.12 -0.21,0 -0.25,0 -0.46,0.22 -0.19,0.23 -0.27,0.31 -0.37,0.97 -0.09,0.66 -0.1,0.66 -0.1,1.31 0,0.64 0,0 z"
     id="path338"
     inkscape:connector-curvature="0"
     style="fill:#000000;fill-rule:evenodd;stroke-width:1.3;stroke-miterlimit:4;stroke-dasharray:none" />
  <path
     d="m 110.84,246.46 -0.1,0.34 -5.13,0 0.13,-0.34 0.39,-0.01 0.52,-0.06 0.13,-0.06 0.2,-0.08 0.3,-0.22 0.1,-0.14 0.15,-0.22 0.32,-0.78 0.16,-0.57 2.19,-7.61 0.14,-0.48 0.14,-0.71 0,-0.24 0,-0.13 -0.06,-0.2 -0.06,-0.08 -0.06,-0.09 -0.18,-0.13 -0.13,-0.04 -0.12,-0.04 -0.48,-0.05 -0.36,0 0.11,-0.33 4.82,0 -0.1,0.33 -0.3,0 -0.44,0.07 -0.15,0.07 -0.21,0.1 -0.32,0.29 -0.1,0.19 -0.11,0.19 -0.29,0.83 -0.17,0.64 -2.19,7.61 -0.14,0.48 -0.15,0.61 0,0.14 0,0.1 0.05,0.18 0.06,0.08 0.06,0.07 0.19,0.12 0.12,0.04 0.13,0.04 0.54,0.07 0.4,0.02 0,0 z"
     id="path340"
     inkscape:connector-curvature="0"
     style="fill:#000000;fill-rule:evenodd;stroke-width:1.3;stroke-miterlimit:4;stroke-dasharray:none" />
  <path
     d="m 114.45,242 2.46,-1.2 0.24,0 0,8.52 0,0.42 0.04,0.53 0.03,0.1 0.04,0.1 0.15,0.16 0.11,0.06 0.11,0.06 0.45,0.06 0.34,0.01 0,0.27 -3.79,0 0,-0.27 0.36,-0.01 0.46,-0.06 0.1,-0.06 0.11,-0.05 0.14,-0.14 0.04,-0.1 0.04,-0.09 0.04,-0.54 0,-0.45 0,-5.44 0,-0.56 -0.03,-0.71 -0.04,-0.15 -0.03,-0.12 -0.09,-0.18 -0.07,-0.05 -0.07,-0.06 -0.17,-0.06 -0.09,0 -0.14,0 -0.38,0.12 -0.25,0.11 -0.11,-0.22 z"
     id="path342"
     inkscape:connector-curvature="0"
     style="fill:#000000;fill-rule:evenodd;stroke-width:1.3;stroke-miterlimit:4;stroke-dasharray:none" />
  <path
     d="m 184.85,233.9 0,17.19"
     id="path344"
     inkscape:connector-curvature="0"
     style="fill:none;stroke:#ff0000;stroke-width:1.3;stroke-miterlimit:4;stroke-dasharray:none" />
  <path
     d="m 184.85,251.09 2.14,-6.44"
     id="path346"
     inkscape:connector-curvature="0"
     style="fill:none;stroke:#ff0000;stroke-width:1.3;stroke-miterlimit:4;stroke-dasharray:none" />
  <path
     d="m 182.7,244.65 2.15,6.44"
     id="path348"
     inkscape:connector-curvature="0"
     style="fill:none;stroke:#ff0000;stroke-width:1.3;stroke-miterlimit:4;stroke-dasharray:none" />
  <path
     d="m 171.01,246.46 -0.1,0.34 -5.12,0 0.13,-0.34 0.39,-0.01 0.52,-0.06 0.12,-0.06 0.21,-0.08 0.3,-0.22 0.1,-0.14 0.15,-0.22 0.32,-0.78 0.16,-0.57 2.19,-7.61 0.14,-0.48 0.14,-0.71 0,-0.24 0,-0.13 -0.06,-0.2 -0.07,-0.08 -0.06,-0.09 -0.18,-0.13 -0.12,-0.04 -0.13,-0.04 -0.48,-0.05 -0.36,0 0.12,-0.33 4.81,0 -0.1,0.33 -0.3,0 -0.44,0.07 -0.14,0.07 -0.21,0.1 -0.32,0.29 -0.11,0.19 -0.11,0.19 -0.28,0.83 -0.17,0.64 -2.19,7.61 -0.15,0.48 -0.15,0.61 0,0.14 0,0.1 0.06,0.18 0.06,0.08 0.06,0.07 0.18,0.12 0.13,0.04 0.13,0.04 0.53,0.07 0.4,0.02 0,0 z"
     id="path350"
     inkscape:connector-curvature="0"
     style="fill:#000000;fill-rule:evenodd;stroke-width:1.3;stroke-miterlimit:4;stroke-dasharray:none" />
  <path
     d="m 179.83,249.15 -0.71,1.94 -5.95,0 0,-0.27 1.31,-1.2 1.85,-1.96 0.53,-0.76 0.54,-0.75 0.54,-1.39 0,-0.63 0,-0.48 -0.3,-0.79 -0.29,-0.31 -0.3,-0.31 -0.7,-0.3 -0.41,0 -0.37,0 -0.67,0.21 -0.29,0.22 -0.3,0.22 -0.44,0.64 -0.14,0.42 -0.27,0 0.09,-0.69 0.48,-1.06 0.38,-0.36 0.39,-0.37 0.96,-0.37 0.57,0 0.62,0 1.02,0.39 0.41,0.4 0.42,0.39 0.41,0.93 0,0.54 0,0.38 -0.18,0.76 -0.18,0.39 -0.28,0.6 -0.89,1.28 -0.62,0.67 -0.93,1.01 -1.15,1.22 -0.23,0.21 2.63,0 0.4,0 0.57,-0.03 0.16,-0.03 0.16,-0.03 0.29,-0.12 0.13,-0.09 0.13,-0.09 0.23,-0.26 0.1,-0.17 0.28,0 z"
     id="path352"
     inkscape:connector-curvature="0"
     style="fill:#000000;fill-rule:evenodd;stroke-width:1.3;stroke-miterlimit:4;stroke-dasharray:none" />
  <path
     d="m 90.29,178.03 0,68.77"
     id="path354"
     inkscape:connector-curvature="0"
     style="fill:none;stroke:#0000ff;stroke-width:1.3;stroke-miterlimit:4;stroke-dasharray:none" />
  <path
     d="m 90.29,246.8 2.14,-12.9"
     id="path356"
     inkscape:connector-curvature="0"
     style="fill:none;stroke:#0000ff;stroke-width:1.3;stroke-miterlimit:4;stroke-dasharray:none" />
  <path
     d="m 88.14,233.9 2.15,12.9"
     id="path358"
     inkscape:connector-curvature="0"
     style="fill:none;stroke:#0000ff;stroke-width:1.3;stroke-miterlimit:4;stroke-dasharray:none" />
  <path
     d="m 55.9,104.96 0,17.19"
     id="path360"
     inkscape:connector-curvature="0"
     style="fill:none;stroke:#ff0000;stroke-width:1.3;stroke-miterlimit:4;stroke-dasharray:none" />
  <path
     d="m 65.71,117.52 -0.1,0.33 -5.13,0 0.13,-0.33 0.39,-0.01 0.52,-0.07 0.13,-0.06 0.2,-0.07 0.3,-0.22 0.1,-0.14 0.15,-0.22 0.32,-0.79 0.16,-0.56 2.19,-7.62 0.14,-0.47 0.14,-0.72 0,-0.24 0,-0.12 -0.06,-0.21 -0.06,-0.08 -0.06,-0.08 -0.19,-0.13 -0.12,-0.05 -0.12,-0.04 -0.48,-0.04 -0.36,0 0.11,-0.34 4.82,0 -0.1,0.34 -0.3,-0.01 -0.44,0.07 -0.15,0.08 -0.21,0.1 -0.32,0.29 -0.11,0.18 -0.1,0.19 -0.29,0.83 -0.17,0.64 -2.19,7.61 -0.15,0.48 -0.14,0.62 0,0.13 0,0.11 0.05,0.18 0.06,0.07 0.06,0.08 0.19,0.11 0.12,0.04 0.13,0.04 0.53,0.07 0.41,0.03 0,0 z"
     id="path362"
     inkscape:connector-curvature="0"
     style="fill:#000000;fill-rule:evenodd;stroke-width:1.3;stroke-miterlimit:4;stroke-dasharray:none" />
  <path
     d="m 68.08,117.16 0,-0.86 0.26,-1.48 0.26,-0.63 0.26,-0.62 0.69,-0.93 0.43,-0.3 0.34,-0.24 0.69,-0.25 0.36,0 0.58,0 1.04,0.6 0.46,0.59 0.58,0.73 0.57,1.98 0,1.26 0,0.87 -0.25,1.5 -0.25,0.61 -0.26,0.61 -0.64,0.89 -0.39,0.28 -0.4,0.28 -0.75,0.27 -0.37,0 -0.72,0 -1.2,-0.85 -0.48,-0.85 -0.41,-0.72 -0.4,-1.72 0,-1.02 0,0 z m 1.45,0.19 0,1.04 0.26,1.7 0.26,0.66 0.21,0.56 0.63,0.55 0.42,0 0.21,0 0.41,-0.18 0.22,-0.18 0.21,-0.18 0.33,-0.61 0.11,-0.42 0.18,-0.64 0.17,-1.8 0,-1.17 0,-0.86 -0.18,-1.44 -0.18,-0.57 -0.13,-0.43 -0.35,-0.61 -0.21,-0.17 -0.16,-0.13 -0.37,-0.12 -0.21,0 -0.25,0 -0.46,0.23 -0.19,0.22 -0.27,0.31 -0.37,0.97 -0.09,0.66 -0.1,0.67 -0.1,1.3 0,0.64 0,0 z"
     id="path364"
     inkscape:connector-curvature="0"
     style="fill:#000000;fill-rule:evenodd;stroke-width:1.3;stroke-miterlimit:4;stroke-dasharray:none" />
  <path
     d="m 55.9,104.96 -2.15,6.44"
     id="path366"
     inkscape:connector-curvature="0"
     style="fill:none;stroke:#ff0000;stroke-width:1.3;stroke-miterlimit:4;stroke-dasharray:none" />
  <path
     d="m 55.9,104.96 2.15,6.44"
     id="path368"
     inkscape:connector-curvature="0"
     style="fill:none;stroke:#ff0000;stroke-width:1.3;stroke-miterlimit:4;stroke-dasharray:none" />
</svg>
